<?xml version="1.0" encoding="UTF-8"?>
<svg version="1.1" xmlns="http://www.w3.org/2000/svg" width="167" height="60">
<path d="M0 0 C4.0830942 -0.11614929 8.16576377 -0.18723457 12.25 -0.25 C13.40886719 -0.28351562 14.56773438 -0.31703125 15.76171875 -0.3515625 C16.87675781 -0.36445312 17.99179688 -0.37734375 19.140625 -0.390625 C20.16704102 -0.41157227 21.19345703 -0.43251953 22.25097656 -0.45410156 C25 0 25 0 27.34179688 1.64453125 C29.46533418 4.66100473 29.46251935 6.41151292 29.390625 10.078125 C29.37128906 11.81835938 29.37128906 11.81835938 29.3515625 13.59375 C29.31804687 14.8003125 29.28453125 16.006875 29.25 17.25 C29.23195312 18.47203125 29.21390625 19.6940625 29.1953125 20.953125 C29.148181 23.96954078 29.08239413 26.98437491 29 30 C24.91680116 30.0871142 20.83384136 30.14043048 16.75 30.1875 C15.59113281 30.21263672 14.43226562 30.23777344 13.23828125 30.26367188 C12.12324219 30.27333984 11.00820312 30.28300781 9.859375 30.29296875 C8.31975098 30.31653442 8.31975098 30.31653442 6.74902344 30.34057617 C3.6000943 29.95045573 2.26083162 29.18970729 0 27 C-1.62052472 21.58893758 -1.43043696 16.1167094 1 11 C4.02093215 7.97906785 7.56372072 8.53323166 11.625 8.375 C12.82769531 8.31699219 12.82769531 8.31699219 14.0546875 8.2578125 C16.03607556 8.16346069 18.01800645 8.08063785 20 8 C20 7.34 20 6.68 20 6 C13.4 5.67 6.8 5.34 0 5 C0 3.35 0 1.7 0 0 Z M8 16 C7.58333333 19.5 7.58333333 19.5 8 23 C11.31371 25.20914 12.3446021 25.22481553 16.1875 25.125 C17.775625 25.08375 19.36375 25.0425 21 25 C21 21.37 21 17.74 21 14 C19.22625 13.95875 17.4525 13.9175 15.625 13.875 C14.62726563 13.85179687 13.62953125 13.82859375 12.6015625 13.8046875 C9.83737827 13.72783152 9.83737827 13.72783152 8 16 Z " fill="#000000" transform="translate(104,8)"/>
<path d="M0 0 C0.95003906 -0.00708984 1.90007812 -0.01417969 2.87890625 -0.02148438 C9.74256342 0.04126355 9.74256342 0.04126355 12.76953125 1.62475586 C15.10845115 4.07488005 15.01566397 5.521778 15.03125 8.875 C15.03640625 9.93460938 15.0415625 10.99421875 15.046875 12.0859375 C15.03140625 13.19195312 15.0159375 14.29796875 15 15.4375 C15.01546875 16.54351563 15.0309375 17.64953125 15.046875 18.7890625 C15.04171875 19.84867188 15.0365625 20.90828125 15.03125 22 C15.02673828 22.97066406 15.02222656 23.94132812 15.01757812 24.94140625 C14.5 27.4375 14.5 27.4375 12.76953125 29.25024414 C8.70346901 31.37731607 4.49828567 30.9085693 0 30.875 C-1.42505859 30.9049707 -1.42505859 30.9049707 -2.87890625 30.93554688 C-6.74984352 30.9328247 -9.64904213 30.87184308 -13.125 29.09765625 C-15.3950713 24.70584216 -15.0754101 20.30145175 -15 15.4375 C-15.01546875 14.43976562 -15.0309375 13.44203125 -15.046875 12.4140625 C-15.02542499 8.41363637 -14.9770898 5.36050612 -13.125 1.77734375 C-8.87299403 -0.39295096 -4.69856374 -0.09881647 0 0 Z M-6.5 7.4375 C-6.80330339 10.19696614 -6.91834858 12.68245685 -6.875 15.4375 C-6.88660156 16.17484375 -6.89820313 16.9121875 -6.91015625 17.671875 C-6.93409002 20.06565569 -6.93409002 20.06565569 -6.5 23.4375 C-2.81282562 25.89561625 -0.85654296 25.74868164 3.5 25.4375 C4.49 24.7775 5.48 24.1175 6.5 23.4375 C6.80330339 20.67803386 6.91834858 18.19254315 6.875 15.4375 C6.88660156 14.70015625 6.89820313 13.9628125 6.91015625 13.203125 C6.93409002 10.80934431 6.93409002 10.80934431 6.5 7.4375 C1.9506497 4.4045998 -1.9506497 4.4045998 -6.5 7.4375 Z " fill="#000000" transform="translate(64.5,7.5625)"/>
<path d="M0 0 C1.25159912 0.00523682 2.50319824 0.01047363 3.79272461 0.01586914 C4.78942421 0.01799156 4.78942421 0.01799156 5.80625916 0.02015686 C7.93590735 0.02577021 10.06545175 0.03832485 12.19506836 0.05102539 C13.63582205 0.05603868 15.07657739 0.06060188 16.51733398 0.06469727 C20.05577938 0.07574394 23.59416375 0.09301747 27.13256836 0.11352539 C27.13256836 1.43352539 27.13256836 2.75352539 27.13256836 4.11352539 C23.17256836 4.11352539 19.21256836 4.11352539 15.13256836 4.11352539 C15.13256836 4.77352539 15.13256836 5.43352539 15.13256836 6.11352539 C19.09256836 6.11352539 23.05256836 6.11352539 27.13256836 6.11352539 C27.13256836 7.43352539 27.13256836 8.75352539 27.13256836 10.11352539 C23.17256836 10.11352539 19.21256836 10.11352539 15.13256836 10.11352539 C15.13256836 11.10352539 15.13256836 12.09352539 15.13256836 13.11352539 C19.69057958 13.92646337 23.61598845 14.25820906 28.13256836 13.11352539 C30.46369362 10.3803548 32.00356094 7.96192494 33.50756836 4.73779297 C35.60963778 0.30191557 35.60963778 0.30191557 38.55053711 -0.75756836 C42.68260014 0.63645593 43.9304368 3.85362338 45.94506836 7.55102539 C46.55511719 8.61160156 46.55511719 8.61160156 47.17749023 9.69360352 C50.13256836 14.88361468 50.13256836 14.88361468 50.13256836 16.11352539 C48.15256836 16.11352539 46.17256836 16.11352539 44.13256836 16.11352539 C43.63756836 15.12352539 43.63756836 15.12352539 43.13256836 14.11352539 C40.16256836 14.11352539 37.19256836 14.11352539 34.13256836 14.11352539 C33.80256836 14.77352539 33.47256836 15.43352539 33.13256836 16.11352539 C20.92256836 16.11352539 8.71256836 16.11352539 -3.86743164 16.11352539 C-3.86743164 0.15311671 -3.86743164 0.15311671 0 0 Z M1.13256836 4.11352539 C1.13256836 7.08352539 1.13256836 10.05352539 1.13256836 13.11352539 C4.10256836 13.11352539 7.07256836 13.11352539 10.13256836 13.11352539 C10.13256836 10.14352539 10.13256836 7.17352539 10.13256836 4.11352539 C7.16256836 4.11352539 4.19256836 4.11352539 1.13256836 4.11352539 Z M38.13256836 5.11352539 C37.47256836 6.76352539 36.81256836 8.41352539 36.13256836 10.11352539 C37.78256836 10.11352539 39.43256836 10.11352539 41.13256836 10.11352539 C40.47256836 8.46352539 39.81256836 6.81352539 39.13256836 5.11352539 C38.80256836 5.11352539 38.47256836 5.11352539 38.13256836 5.11352539 Z " fill="#000000" transform="translate(103.867431640625,43.886474609375)"/>
<path d="M0 0 C0.89267578 0.00322266 1.78535156 0.00644531 2.70507812 0.00976562 C4.09823242 0.02233398 4.09823242 0.02233398 5.51953125 0.03515625 C6.45990234 0.03966797 7.40027344 0.04417969 8.36914062 0.04882812 C10.69016837 0.06060999 13.01106769 0.07706067 15.33203125 0.09765625 C15.33203125 1.74765625 15.33203125 3.39765625 15.33203125 5.09765625 C7.41203125 5.59265625 7.41203125 5.59265625 -0.66796875 6.09765625 C-0.66796875 12.03765625 -0.66796875 17.97765625 -0.66796875 24.09765625 C4.61203125 24.42765625 9.89203125 24.75765625 15.33203125 25.09765625 C15.33203125 26.74765625 15.33203125 28.39765625 15.33203125 30.09765625 C12.10334379 30.24349689 8.8755076 30.33189731 5.64453125 30.41015625 C4.27651367 30.47299805 4.27651367 30.47299805 2.88085938 30.53710938 C-1.4872176 30.61652896 -3.98772026 30.51023804 -7.78515625 28.20703125 C-10.46825255 23.77602574 -10.2922094 20.11376948 -10.10546875 15.03515625 C-10.09966797 14.13732422 -10.09386719 13.23949219 -10.08789062 12.31445312 C-9.94391578 4.56860672 -9.94391578 4.56860672 -7.66796875 1.09765625 C-4.78531726 0.13677242 -2.99134604 -0.01905316 0 0 Z " fill="#000000" transform="translate(9.66796875,7.90234375)"/>
<path d="M0 0 C7.59 0 15.18 0 23 0 C21.59007421 3.52481447 20.2828217 6.42354896 18.3984375 9.64453125 C17.90859375 10.48564453 17.41875 11.32675781 16.9140625 12.19335938 C16.40617187 13.05767578 15.89828125 13.92199219 15.375 14.8125 C14.859375 15.69615234 14.34375 16.57980469 13.8125 17.49023438 C12.54469953 19.66192963 11.27275663 21.83120567 10 24 C14.29 24.33 18.58 24.66 23 25 C23 26.65 23 28.3 23 30 C15.41 30 7.82 30 0 30 C1.39759164 25.80722509 2.44832576 22.91330743 4.6015625 19.2578125 C5.33632812 18.00097656 5.33632812 18.00097656 6.0859375 16.71875 C6.59382813 15.8628125 7.10171875 15.006875 7.625 14.125 C8.140625 13.24585938 8.65625 12.36671875 9.1875 11.4609375 C10.45332613 9.30434483 11.72598467 7.15176502 13 5 C8.71 5 4.42 5 0 5 C0 3.35 0 1.7 0 0 Z " fill="#000000" transform="translate(80,8)"/>
<path d="M0 0 C12.21 0 24.42 0 37 0 C37 1.32 37 2.64 37 4 C32.71 4 28.42 4 24 4 C24 4.66 24 5.32 24 6 C28.29 6 32.58 6 37 6 C37 7.32 37 8.64 37 10 C32.71 10 28.42 10 24 10 C24 10.99 24 11.98 24 13 C28.29 13 32.58 13 37 13 C37 13.99 37 14.98 37 16 C31.06 16 25.12 16 19 16 C19 12.04 19 8.08 19 4 C16.69 4 14.38 4 12 4 C12 7.96 12 11.92 12 16 C10.68 16 9.36 16 8 16 C8 12.04 8 8.08 8 4 C5.36 4 2.72 4 0 4 C0 2.68 0 1.36 0 0 Z " fill="#000000" transform="translate(0,44)"/>
<path d="M0 0 C0.79921875 0.01289062 1.5984375 0.02578125 2.421875 0.0390625 C3.246875 0.07257812 4.071875 0.10609375 4.921875 0.140625 C5.76234375 0.15867187 6.6028125 0.17671875 7.46875 0.1953125 C9.53694895 0.24231702 11.60455941 0.31405776 13.671875 0.390625 C13.671875 2.040625 13.671875 3.690625 13.671875 5.390625 C7.236875 5.885625 7.236875 5.885625 0.671875 6.390625 C0.341875 14.310625 0.011875 22.230625 -0.328125 30.390625 C-2.968125 30.390625 -5.608125 30.390625 -8.328125 30.390625 C-8.44423895 26.14085454 -8.51534849 21.89149163 -8.578125 17.640625 C-8.61164062 16.4340625 -8.64515625 15.2275 -8.6796875 13.984375 C-8.69257813 12.82421875 -8.70546875 11.6640625 -8.71875 10.46875 C-8.73969727 9.40043945 -8.76064453 8.33212891 -8.78222656 7.23144531 C-7.96720852 2.13276252 -5.07861784 -0.14510337 0 0 Z " fill="#000000" transform="translate(35.328125,7.609375)"/>
<path d="M0 0 C1.13115234 0.01450195 1.13115234 0.01450195 2.28515625 0.02929688 C3.45111328 0.06700195 3.45111328 0.06700195 4.640625 0.10546875 C5.43339844 0.11900391 6.22617188 0.13253906 7.04296875 0.14648438 C8.99248064 0.18171652 10.94164126 0.23552054 12.890625 0.29296875 C12.890625 1.94296875 12.890625 3.59296875 12.890625 5.29296875 C11.84261719 5.38384766 11.84261719 5.38384766 10.7734375 5.4765625 C9.86335938 5.56035156 8.95328125 5.64414063 8.015625 5.73046875 C7.11070312 5.81167969 6.20578125 5.89289062 5.2734375 5.9765625 C2.87951639 6.1628616 2.87951639 6.1628616 0.890625 7.29296875 C0.560625 14.88296875 0.230625 22.47296875 -0.109375 30.29296875 C-2.749375 30.29296875 -5.389375 30.29296875 -8.109375 30.29296875 C-8.22524255 25.85568724 -8.29651558 21.41879284 -8.359375 16.98046875 C-8.39289063 15.71783203 -8.42640625 14.45519531 -8.4609375 13.15429688 C-8.47382813 11.94580078 -8.48671875 10.73730469 -8.5 9.4921875 C-8.52094727 8.37674561 -8.54189453 7.26130371 -8.56347656 6.11206055 C-8.109375 3.29296875 -8.109375 3.29296875 -6.34179688 1.42382812 C-3.9696322 0.2221804 -2.63358865 -0.05985429 0 0 Z " fill="#000000" transform="translate(154.109375,7.70703125)"/>
<path d="M0 0 C2.64 0 5.28 0 8 0 C8 9.9 8 19.8 8 30 C5.36 30 2.72 30 0 30 C0 20.1 0 10.2 0 0 Z " fill="#000000" transform="translate(136,8)"/>
<path d="M0 0 C5.89266858 0.98211143 6.88640604 1.25520577 10.875 5.0625 C11.65617187 5.79597656 12.43734375 6.52945313 13.2421875 7.28515625 C13.82226562 7.85105469 14.40234375 8.41695312 15 9 C15.33 6.03 15.66 3.06 16 0 C17.32 0 18.64 0 20 0 C20 5.28 20 10.56 20 16 C14.43184961 16 13.97580942 15.61868362 10.1875 12 C9.39730469 11.2575 8.60710937 10.515 7.79296875 9.75 C7.20128906 9.1725 6.60960938 8.595 6 8 C5.67 10.64 5.34 13.28 5 16 C3.35 16 1.7 16 0 16 C0 10.72 0 5.44 0 0 Z " fill="#000000" transform="translate(73,44)"/>
<path d="M0 0 C1.32 0 2.64 0 4 0 C4 1.98 4 3.96 4 6 C7.63 6 11.26 6 15 6 C15 4.02 15 2.04 15 0 C16.32 0 17.64 0 19 0 C19 5.28 19 10.56 19 16 C17.68 16 16.36 16 15 16 C15 14.02 15 12.04 15 10 C11.37 10 7.74 10 4 10 C4 11.98 4 13.96 4 16 C2.68 16 1.36 16 0 16 C0 10.72 0 5.44 0 0 Z " fill="#000000" transform="translate(53,44)"/>
<path d="M0 0 C1.79244141 0.01740234 1.79244141 0.01740234 3.62109375 0.03515625 C5.41740234 0.04869141 5.41740234 0.04869141 7.25 0.0625 C8.17683594 0.07410156 9.10367188 0.08570313 10.05859375 0.09765625 C10.05859375 1.41765625 10.05859375 2.73765625 10.05859375 4.09765625 C6.75859375 4.09765625 3.45859375 4.09765625 0.05859375 4.09765625 C0.05859375 7.06765625 0.05859375 10.03765625 0.05859375 13.09765625 C3.35859375 13.09765625 6.65859375 13.09765625 10.05859375 13.09765625 C10.05859375 14.08765625 10.05859375 15.07765625 10.05859375 16.09765625 C5.43859375 16.09765625 0.81859375 16.09765625 -3.94140625 16.09765625 C-3.9682572 13.61841824 -3.98817172 11.13946785 -4.00390625 8.66015625 C-4.01647461 7.59958008 -4.01647461 7.59958008 -4.02929688 6.51757812 C-4.03794213 4.71072066 -3.99360636 2.90378022 -3.94140625 1.09765625 C-2.94140625 0.09765625 -2.94140625 0.09765625 0 0 Z " fill="#000000" transform="translate(41.94140625,43.90234375)"/>
<path d="M0 0 C1.65 0 3.3 0 5 0 C5 5.28 5 10.56 5 16 C3.35 16 1.7 16 0 16 C0 10.72 0 5.44 0 0 Z " fill="#000000" transform="translate(94,44)"/>
<path d="M0 0 C2.0625 0.4375 2.0625 0.4375 4 1 C4.625 2.875 4.625 2.875 5 5 C4.34 5.66 3.68 6.32 3 7 C0.375 6.625 0.375 6.625 -2 6 C-1.125 1.125 -1.125 1.125 0 0 Z " fill="#F58220" transform="translate(86,0)"/>
<path d="M0 0 C2.125 0.375 2.125 0.375 4 1 C4.625 2.875 4.625 2.875 5 5 C4.34 5.66 3.68 6.32 3 7 C0.875 6.625 0.875 6.625 -1 6 C-1.625 4.125 -1.625 4.125 -2 2 C-1.34 1.34 -0.68 0.68 0 0 Z " fill="#F58220" transform="translate(95,0)"/>
</svg>
